<svg width="420" height="420" xmlns="http://www.w3.org/2000/svg"><rect x="0" y="0" width="420" height="420" fill="#f0d9b5" /><rect x="20" y="0" width="50" height="50" fill="#ffce9e" /><rect x="70" y="0" width="50" height="50" fill="#d18b47" /><rect x="120" y="0" width="50" height="50" fill="#ffce9e" /><rect x="170" y="0" width="50" height="50" fill="#d18b47" /><rect x="220" y="0" width="50" height="50" fill="#ffce9e" /><rect x="270" y="0" width="50" height="50" fill="#d18b47" /><rect x="320" y="0" width="50" height="50" fill="#ffce9e" /><rect x="370" y="0" width="50" height="50" fill="#d18b47" /><rect x="20" y="50" width="50" height="50" fill="#d18b47" /><rect x="70" y="50" width="50" height="50" fill="#ffce9e" /><rect x="120" y="50" width="50" height="50" fill="#d18b47" /><rect x="170" y="50" width="50" height="50" fill="#ffce9e" /><rect x="220" y="50" width="50" height="50" fill="#d18b47" /><rect x="270" y="50" width="50" height="50" fill="#ffce9e" /><rect x="320" y="50" width="50" height="50" fill="#d18b47" /><rect x="370" y="50" width="50" height="50" fill="#ffce9e" /><rect x="20" y="100" width="50" height="50" fill="#ffce9e" /><rect x="70" y="100" width="50" height="50" fill="#d18b47" /><rect x="120" y="100" width="50" height="50" fill="#ffce9e" /><rect x="170" y="100" width="50" height="50" fill="#d18b47" /><rect x="220" y="100" width="50" height="50" fill="#ffce9e" /><rect x="270" y="100" width="50" height="50" fill="#d18b47" /><rect x="320" y="100" width="50" height="50" fill="#ffce9e" /><rect x="370" y="100" width="50" height="50" fill="#d18b47" /><rect x="20" y="150" width="50" height="50" fill="#d18b47" /><rect x="70" y="150" width="50" height="50" fill="#ffce9e" /><rect x="120" y="150" width="50" height="50" fill="#d18b47" /><rect x="170" y="150" width="50" height="50" fill="#ffce9e" /><rect x="220" y="150" width="50" height="50" fill="#d18b47" /><rect x="270" y="150" width="50" height="50" fill="#ffce9e" /><rect x="320" y="150" width="50" height="50" fill="#d18b47" /><rect x="370" y="150" width="50" height="50" fill="#ffce9e" /><rect x="20" y="200" width="50" height="50" fill="#ffce9e" /><rect x="70" y="200" width="50" height="50" fill="#d18b47" /><rect x="120" y="200" width="50" height="50" fill="#ffce9e" /><rect x="170" y="200" width="50" height="50" fill="#d18b47" /><rect x="220" y="200" width="50" height="50" fill="#ffce9e" /><rect x="270" y="200" width="50" height="50" fill="#d18b47" /><rect x="320" y="200" width="50" height="50" fill="#ffce9e" /><rect x="370" y="200" width="50" height="50" fill="#d18b47" /><rect x="20" y="250" width="50" height="50" fill="#d18b47" /><rect x="70" y="250" width="50" height="50" fill="#ffce9e" /><rect x="120" y="250" width="50" height="50" fill="#d18b47" /><rect x="170" y="250" width="50" height="50" fill="#ffce9e" /><rect x="220" y="250" width="50" height="50" fill="#d18b47" /><rect x="270" y="250" width="50" height="50" fill="#ffce9e" /><rect x="320" y="250" width="50" height="50" fill="#d18b47" /><rect x="370" y="250" width="50" height="50" fill="#ffce9e" /><rect x="20" y="300" width="50" height="50" fill="#ffce9e" /><rect x="70" y="300" width="50" height="50" fill="#d18b47" /><rect x="120" y="300" width="50" height="50" fill="#ffce9e" /><rect x="170" y="300" width="50" height="50" fill="#d18b47" /><rect x="220" y="300" width="50" height="50" fill="#ffce9e" /><rect x="270" y="300" width="50" height="50" fill="#d18b47" /><rect x="320" y="300" width="50" height="50" fill="#ffce9e" /><rect x="370" y="300" width="50" height="50" fill="#d18b47" /><rect x="20" y="350" width="50" height="50" fill="#d18b47" /><rect x="70" y="350" width="50" height="50" fill="#ffce9e" /><rect x="120" y="350" width="50" height="50" fill="#d18b47" /><rect x="170" y="350" width="50" height="50" fill="#ffce9e" /><rect x="220" y="350" width="50" height="50" fill="#d18b47" /><rect x="270" y="350" width="50" height="50" fill="#ffce9e" /><rect x="320" y="350" width="50" height="50" fill="#d18b47" /><rect x="370" y="350" width="50" height="50" fill="#ffce9e" /><text x="10" y="25" font-size="14" text-anchor="middle" dominant-baseline="central" fill="black">
            8
        </text><text x="10" y="75" font-size="14" text-anchor="middle" dominant-baseline="central" fill="black">
            7
        </text><text x="10" y="125" font-size="14" text-anchor="middle" dominant-baseline="central" fill="black">
            6
        </text><text x="10" y="175" font-size="14" text-anchor="middle" dominant-baseline="central" fill="black">
            5
        </text><text x="10" y="225" font-size="14" text-anchor="middle" dominant-baseline="central" fill="black">
            4
        </text><text x="10" y="275" font-size="14" text-anchor="middle" dominant-baseline="central" fill="black">
            3
        </text><text x="10" y="325" font-size="14" text-anchor="middle" dominant-baseline="central" fill="black">
            2
        </text><text x="10" y="375" font-size="14" text-anchor="middle" dominant-baseline="central" fill="black">
            1
        </text><text x="45" y="410" font-size="14" text-anchor="middle" dominant-baseline="central" fill="black">
            A
        </text><text x="95" y="410" font-size="14" text-anchor="middle" dominant-baseline="central" fill="black">
            B
        </text><text x="145" y="410" font-size="14" text-anchor="middle" dominant-baseline="central" fill="black">
            C
        </text><text x="195" y="410" font-size="14" text-anchor="middle" dominant-baseline="central" fill="black">
            D
        </text><text x="245" y="410" font-size="14" text-anchor="middle" dominant-baseline="central" fill="black">
            E
        </text><text x="295" y="410" font-size="14" text-anchor="middle" dominant-baseline="central" fill="black">
            F
        </text><text x="345" y="410" font-size="14" text-anchor="middle" dominant-baseline="central" fill="black">
            G
        </text><text x="395" y="410" font-size="14" text-anchor="middle" dominant-baseline="central" fill="black">
            H
        </text>
        <g transform="translate(245,375)">
            <circle r="20" fill="transparent" />
            <text font-size="40" text-anchor="middle" dominant-baseline="central" fill="white">
                ♔
            </text>
        </g>
        <g transform="translate(45,375)">
            <circle r="20" fill="transparent" />
            <text font-size="40" text-anchor="middle" dominant-baseline="central" fill="white">
                ♖
            </text>
        </g>
        <g transform="translate(395,375)">
            <circle r="20" fill="transparent" />
            <text font-size="40" text-anchor="middle" dominant-baseline="central" fill="white">
                ♖
            </text>
        </g>
        <g transform="translate(145,375)">
            <circle r="20" fill="transparent" />
            <text font-size="40" text-anchor="middle" dominant-baseline="central" fill="white">
                ♗
            </text>
        </g>
        <g transform="translate(95,375)">
            <circle r="20" fill="transparent" />
            <text font-size="40" text-anchor="middle" dominant-baseline="central" fill="white">
                ♘
            </text>
        </g>
        <g transform="translate(45,325)">
            <circle r="20" fill="transparent" />
            <text font-size="40" text-anchor="middle" dominant-baseline="central" fill="white">
                ♙
            </text>
        </g>
        <g transform="translate(95,325)">
            <circle r="20" fill="transparent" />
            <text font-size="40" text-anchor="middle" dominant-baseline="central" fill="white">
                ♙
            </text>
        </g>
        <g transform="translate(145,325)">
            <circle r="20" fill="transparent" />
            <text font-size="40" text-anchor="middle" dominant-baseline="central" fill="white">
                ♙
            </text>
        </g>
        <g transform="translate(195,325)">
            <circle r="20" fill="transparent" />
            <text font-size="40" text-anchor="middle" dominant-baseline="central" fill="white">
                ♙
            </text>
        </g>
        <g transform="translate(295,325)">
            <circle r="20" fill="transparent" />
            <text font-size="40" text-anchor="middle" dominant-baseline="central" fill="white">
                ♙
            </text>
        </g>
        <g transform="translate(345,325)">
            <circle r="20" fill="transparent" />
            <text font-size="40" text-anchor="middle" dominant-baseline="central" fill="white">
                ♙
            </text>
        </g>
        <g transform="translate(395,325)">
            <circle r="20" fill="transparent" />
            <text font-size="40" text-anchor="middle" dominant-baseline="central" fill="white">
                ♙
            </text>
        </g>
        <g transform="translate(45,25)">
            <circle r="20" fill="transparent" />
            <text font-size="40" text-anchor="middle" dominant-baseline="central" fill="black">
                ♜
            </text>
        </g>
        <g transform="translate(395,25)">
            <circle r="20" fill="transparent" />
            <text font-size="40" text-anchor="middle" dominant-baseline="central" fill="black">
                ♜
            </text>
        </g>
        <g transform="translate(145,25)">
            <circle r="20" fill="transparent" />
            <text font-size="40" text-anchor="middle" dominant-baseline="central" fill="black">
                ♝
            </text>
        </g>
        <g transform="translate(95,25)">
            <circle r="20" fill="transparent" />
            <text font-size="40" text-anchor="middle" dominant-baseline="central" fill="black">
                ♞
            </text>
        </g>
        <g transform="translate(345,25)">
            <circle r="20" fill="transparent" />
            <text font-size="40" text-anchor="middle" dominant-baseline="central" fill="black">
                ♞
            </text>
        </g>
        <g transform="translate(45,75)">
            <circle r="20" fill="transparent" />
            <text font-size="40" text-anchor="middle" dominant-baseline="central" fill="black">
                ♟
            </text>
        </g>
        <g transform="translate(95,75)">
            <circle r="20" fill="transparent" />
            <text font-size="40" text-anchor="middle" dominant-baseline="central" fill="black">
                ♟
            </text>
        </g>
        <g transform="translate(145,75)">
            <circle r="20" fill="transparent" />
            <text font-size="40" text-anchor="middle" dominant-baseline="central" fill="black">
                ♟
            </text>
        </g>
        <g transform="translate(195,75)">
            <circle r="20" fill="transparent" />
            <text font-size="40" text-anchor="middle" dominant-baseline="central" fill="black">
                ♟
            </text>
        </g>
        <g transform="translate(345,75)">
            <circle r="20" fill="transparent" />
            <text font-size="40" text-anchor="middle" dominant-baseline="central" fill="black">
                ♟
            </text>
        </g>
        <g transform="translate(395,75)">
            <circle r="20" fill="transparent" />
            <text font-size="40" text-anchor="middle" dominant-baseline="central" fill="black">
                ♟
            </text>
        </g>
        <g transform="translate(245,225)">
            <circle r="20" fill="transparent" />
            <text font-size="40" text-anchor="middle" dominant-baseline="central" fill="white">
                ♙
            </text>
        </g>
        <g transform="translate(245,175)">
            <circle r="20" fill="transparent" />
            <text font-size="40" text-anchor="middle" dominant-baseline="central" fill="black">
                ♟
            </text>
        </g>
        <g transform="translate(145,225)">
            <circle r="20" fill="transparent" />
            <text font-size="40" text-anchor="middle" dominant-baseline="central" fill="white">
                ♗
            </text>
        </g>
        <g transform="translate(395,225)">
            <circle r="20" fill="transparent" />
            <text font-size="40" text-anchor="middle" dominant-baseline="central" fill="black">
                ♛
            </text>
        </g>
        <g transform="translate(195,25)">
            <circle r="20" fill="transparent" />
            <text font-size="40" text-anchor="middle" dominant-baseline="central" fill="black">
                ♚
            </text>
        </g>
        <g transform="translate(295,275)">
            <circle r="20" fill="transparent" />
            <text font-size="40" text-anchor="middle" dominant-baseline="central" fill="white">
                ♘
            </text>
        </g>
        <g transform="translate(95,125)">
            <circle r="20" fill="transparent" />
            <text font-size="40" text-anchor="middle" dominant-baseline="central" fill="black">
                ♝
            </text>
        </g>
        <g transform="translate(295,25)">
            <circle r="20" fill="transparent" />
            <text font-size="40" text-anchor="middle" dominant-baseline="central" fill="white">
                ♕
            </text>
        </g></svg>